<svg width="18" height="18" viewBox="0 0 18 18" fill="none" xmlns="http://www.w3.org/2000/svg">
<path d="M12.1834 15.6667L16.5 15.6667C16.721 15.6667 16.933 15.5789 17.0893 15.4226C17.2456 15.2663 17.3334 15.0544 17.3334 14.8333C17.3334 14.6123 17.2456 14.4004 17.0893 14.2441C16.933 14.0878 16.721 14 16.5 14L12.1834 14C12.0082 13.5174 11.6887 13.1004 11.2682 12.8057C10.8478 12.511 10.3468 12.3529 9.83336 12.3529C9.31993 12.3529 8.81894 12.511 8.3985 12.8057C7.97805 13.1004 7.65853 13.5174 7.48336 14L1.50003 14C1.27901 14 1.06705 14.0878 0.91077 14.2441C0.754489 14.4004 0.666692 14.6123 0.666692 14.8333C0.666692 15.0544 0.754489 15.2663 0.91077 15.4226C1.06705 15.5789 1.27901 15.6667 1.50003 15.6667L7.48336 15.6667C7.65853 16.1493 7.97805 16.5663 8.3985 16.861C8.81894 17.1557 9.31993 17.3137 9.83336 17.3137C10.3468 17.3137 10.8478 17.1557 11.2682 16.861C11.6887 16.5663 12.0082 16.1493 12.1834 15.6667ZM9.00003 14.8333C9.00003 14.6685 9.0489 14.5074 9.14047 14.3704C9.23204 14.2333 9.36218 14.1265 9.51446 14.0634C9.66673 14.0004 9.83428 13.9839 9.99593 14.016C10.1576 14.0482 10.3061 14.1275 10.4226 14.2441C10.5392 14.3606 10.6185 14.5091 10.6507 14.6708C10.6828 14.8324 10.6663 15 10.6033 15.1522C10.5402 15.3045 10.4334 15.4347 10.2963 15.5262C10.1593 15.6178 9.99818 15.6667 9.83336 15.6667C9.61234 15.6667 9.40038 15.5789 9.2441 15.4226C9.08782 15.2663 9.00003 15.0544 9.00003 14.8333ZM7.18336 9.83334L16.5 9.83334C16.721 9.83334 16.933 9.74555 17.0893 9.58926C17.2456 9.43298 17.3334 9.22102 17.3334 9.00001C17.3334 8.779 17.2456 8.56703 17.0893 8.41075C16.933 8.25447 16.721 8.16668 16.5 8.16668L7.18336 8.16668C7.00819 7.68405 6.68867 7.26706 6.26822 6.97238C5.84777 6.6777 5.34679 6.51961 4.83336 6.51961C4.31993 6.51961 3.81894 6.6777 3.3985 6.97238C2.97805 7.26706 2.65853 7.68405 2.48336 8.16668L1.50003 8.16668C1.27901 8.16668 1.06705 8.25447 0.91077 8.41075C0.75449 8.56703 0.666692 8.77899 0.666692 9.00001C0.666692 9.22102 0.75449 9.43298 0.91077 9.58926C1.06705 9.74554 1.27901 9.83334 1.50003 9.83334L2.48336 9.83334C2.65853 10.316 2.97805 10.733 3.3985 11.0276C3.81894 11.3223 4.31993 11.4804 4.83336 11.4804C5.34679 11.4804 5.84777 11.3223 6.26822 11.0276C6.68867 10.733 7.00819 10.316 7.18336 9.83334ZM4.00003 9.00001C4.00003 8.83519 4.0489 8.67407 4.14047 8.53703C4.23203 8.39999 4.36218 8.29318 4.51446 8.23011C4.66673 8.16704 4.83428 8.15053 4.99594 8.18269C5.15759 8.21484 5.30607 8.29421 5.42261 8.41075C5.53916 8.5273 5.61853 8.67578 5.65068 8.83743C5.68283 8.99908 5.66633 9.16664 5.60326 9.31891C5.54019 9.47118 5.43337 9.60133 5.29633 9.6929C5.15929 9.78447 4.99818 9.83334 4.83336 9.83334C4.61235 9.83334 4.40038 9.74554 4.2441 9.58926C4.08782 9.43298 4.00003 9.22102 4.00003 9.00001ZM13.85 4.00001L16.5 4.00001C16.721 4.00001 16.933 3.91221 17.0893 3.75593C17.2456 3.59965 17.3334 3.38769 17.3334 3.16668C17.3334 2.94566 17.2456 2.7337 17.0893 2.57742C16.933 2.42114 16.721 2.33334 16.5 2.33334L13.85 2.33334C13.6749 1.85072 13.3553 1.43373 12.9349 1.13904C12.5144 0.844362 12.0135 0.686279 11.5 0.686279C10.9866 0.686279 10.4856 0.844362 10.0652 1.13904C9.64472 1.43373 9.3252 1.85072 9.15003 2.33334L1.50003 2.33334C1.27901 2.33334 1.06705 2.42114 0.91077 2.57742C0.75449 2.7337 0.666693 2.94566 0.666693 3.16668C0.666693 3.38769 0.75449 3.59965 0.91077 3.75593C1.06705 3.91221 1.27901 4.00001 1.50003 4.00001L9.15003 4.00001C9.3252 4.48264 9.64472 4.89963 10.0652 5.19431C10.4856 5.48899 10.9866 5.64707 11.5 5.64707C12.0135 5.64707 12.5144 5.48899 12.9349 5.19431C13.3553 4.89963 13.6749 4.48264 13.85 4.00001ZM10.6667 3.16668C10.6667 3.00186 10.7156 2.84074 10.8071 2.7037C10.8987 2.56666 11.0289 2.45985 11.1811 2.39678C11.3334 2.3337 11.5009 2.3172 11.6626 2.34936C11.8243 2.38151 11.9727 2.46088 12.0893 2.57742C12.2058 2.69396 12.2852 2.84245 12.3173 3.0041C12.3495 3.16575 12.333 3.33331 12.2699 3.48558C12.2069 3.63785 12.1 3.768 11.963 3.85957C11.826 3.95114 11.6648 4.00001 11.5 4.00001C11.279 4.00001 11.0671 3.91221 10.9108 3.75593C10.7545 3.59965 10.6667 3.38769 10.6667 3.16668Z" fill="#54634B"/>
</svg>
