<svg width="22" height="22" viewBox="0 0 22 22" fill="none" xmlns="http://www.w3.org/2000/svg">
<path fill-rule="evenodd" clip-rule="evenodd" d="M5.43543 11.3208C4.92712 11.3208 4.45242 11.2515 4.0161 11.1141V19.4635H17.9872V11.1027C17.5538 11.2394 17.0821 11.3097 16.5773 11.3121C15.5406 11.3121 14.5553 10.9575 13.7733 10.3195C13.001 10.9508 12.0304 11.3061 11.0132 11.3142C9.98169 11.3078 9.0043 10.9534 8.22787 10.3221C7.4473 10.9609 6.46503 11.3178 5.43543 11.3208ZM1 6.92555C1.00148 8.20485 1.54958 9.39779 2.47754 10.2265V19.4635C2.47754 20.312 3.16757 21.002 4.01612 21.002H17.9873C18.8358 21.002 19.5258 20.312 19.5258 19.4635V10.2141C20.4529 9.38363 21.0003 8.18835 21 6.91408C21.0015 6.60757 20.8798 6.26425 19.6774 3.58958C19.3912 2.95308 19.12 2.34981 18.9453 1.937C18.7041 1.36774 18.1482 1 17.5292 1H4.51439C3.89911 1 3.3447 1.36456 3.10241 1.92781C2.93096 2.32596 2.66651 2.90405 2.38527 3.51883L2.35453 3.58603C1.12472 6.27233 1 6.61698 1 6.92555ZM2.53968 6.99747C2.56179 7.84815 2.95447 8.63485 3.60085 9.16256C3.67543 9.20129 3.74286 9.25187 3.80066 9.31181C3.88714 9.37079 3.97737 9.42548 4.07112 9.47548L4.07856 9.47957L4.0918 9.48696C4.46743 9.68286 4.91856 9.78219 5.43318 9.78219C6.28585 9.77974 7.09007 9.4043 7.63774 8.75222C7.70982 8.66631 7.79983 8.59722 7.90145 8.54978C8.00306 8.50235 8.11383 8.47772 8.22597 8.47763C8.33804 8.47762 8.44951 8.5021 8.55112 8.54937C8.65272 8.59664 8.74277 8.66556 8.81495 8.75128C9.35887 9.39699 10.1597 9.77037 11.012 9.77561C11.8466 9.76886 12.6419 9.39472 13.1835 8.74922C13.4754 8.40084 14.0689 8.40045 14.3622 8.74886C14.9088 9.4002 15.7149 9.77358 16.5735 9.77358C17.1051 9.77094 17.5708 9.66315 17.9543 9.45298C18.055 9.39801 18.152 9.33727 18.2449 9.27118C18.2781 9.24159 18.3139 9.21484 18.3519 9.1913C18.6244 8.97785 18.8575 8.71641 19.0389 8.41859C19.3033 7.98454 19.4488 7.48851 19.4606 6.9804C19.3468 6.6072 18.7049 5.1787 18.274 4.22046C17.9829 3.57288 17.7072 2.95893 17.5291 2.53858H4.51437C4.33407 2.95741 4.0516 3.57476 3.75334 4.22647L3.7498 4.2342C3.30997 5.19537 2.65769 6.62079 2.53968 6.99747ZM10.0371 18.31H11.9603V14.4636C11.9603 14.0388 11.6159 13.6943 11.191 13.6943H10.8064C10.3815 13.6943 10.0371 14.0388 10.0371 14.4636V18.31Z" fill="#FCF9F5"/>
<path d="M4.0161 11.1141L4.09119 10.8756L3.7661 10.7733V11.1141H4.0161ZM5.43543 11.3208V11.5708L5.43615 11.5708L5.43543 11.3208ZM4.0161 19.4635H3.7661V19.7135H4.0161V19.4635ZM17.9872 19.4635V19.7135H18.2372V19.4635H17.9872ZM17.9872 11.1027H18.2372V10.7616L17.912 10.8642L17.9872 11.1027ZM16.5773 11.3121V11.5621L16.5785 11.5621L16.5773 11.3121ZM13.7733 10.3195L13.9313 10.1258L13.7731 9.99675L13.6151 10.1259L13.7733 10.3195ZM11.0132 11.3142L11.0116 11.5642L11.0151 11.5642L11.0132 11.3142ZM8.22787 10.3221L8.38557 10.1282L8.22735 9.99953L8.06954 10.1287L8.22787 10.3221ZM2.47754 10.2265H2.72754V10.1146L2.64406 10.04L2.47754 10.2265ZM1 6.92555H0.75L0.75 6.92584L1 6.92555ZM19.5258 19.4635H19.2758V19.4635L19.5258 19.4635ZM19.5258 10.2141L19.359 10.0279L19.2758 10.1024V10.2141H19.5258ZM21 6.91408L20.75 6.91286V6.91413L21 6.91408ZM19.6774 3.58958L19.9054 3.48708L19.9054 3.48705L19.6774 3.58958ZM18.9453 1.937L19.1755 1.83958L19.1755 1.83948L18.9453 1.937ZM3.10241 1.92781L3.33202 2.02669L3.33206 2.0266L3.10241 1.92781ZM2.38527 3.51883L2.15793 3.41483L2.15793 3.41483L2.38527 3.51883ZM2.35453 3.58603L2.58184 3.69009L2.58187 3.69003L2.35453 3.58603ZM3.60085 9.16256L3.44275 9.35621L3.46273 9.37253L3.48563 9.38442L3.60085 9.16256ZM2.53968 6.99747L2.30112 6.92272L2.28869 6.9624L2.28977 7.00396L2.53968 6.99747ZM3.80066 9.31181L3.62069 9.48534L3.63854 9.50385L3.6598 9.51835L3.80066 9.31181ZM4.07112 9.47548L4.19152 9.25636L4.18877 9.2549L4.07112 9.47548ZM4.07856 9.47957L4.20035 9.26123L4.19896 9.26047L4.07856 9.47957ZM4.0918 9.48696L3.96997 9.70537L3.9762 9.70862L4.0918 9.48696ZM5.43318 9.78219V10.0322L5.4339 10.0322L5.43318 9.78219ZM7.63774 8.75222L7.82918 8.91301L7.82926 8.91291L7.63774 8.75222ZM8.22597 8.47763L8.22594 8.22763H8.22577L8.22597 8.47763ZM8.81495 8.75128L8.62371 8.9123L8.62375 8.91235L8.81495 8.75128ZM11.012 9.77561L11.0105 10.0256L11.014 10.0256L11.012 9.77561ZM13.1835 8.74922L13.375 8.90992L13.3751 8.90977L13.1835 8.74922ZM14.3622 8.74886L14.5537 8.58816L14.5535 8.58783L14.3622 8.74886ZM16.5735 9.77358V10.0236L16.5748 10.0236L16.5735 9.77358ZM17.9543 9.45298L17.8345 9.23356L17.8342 9.23374L17.9543 9.45298ZM18.2449 9.27118L18.3899 9.47489L18.401 9.46695L18.4113 9.45783L18.2449 9.27118ZM18.3519 9.1913L18.4836 9.40381L18.4953 9.39658L18.5061 9.38812L18.3519 9.1913ZM19.0389 8.41859L19.2524 8.54865V8.54865L19.0389 8.41859ZM19.4606 6.9804L19.7106 6.98623L19.7115 6.94598L19.6998 6.90747L19.4606 6.9804ZM18.274 4.22046L18.046 4.32297L18.046 4.32298L18.274 4.22046ZM17.5291 2.53858L17.7593 2.44107L17.6948 2.28858H17.5291V2.53858ZM4.51437 2.53858V2.28858H4.34981L4.28474 2.43973L4.51437 2.53858ZM3.75334 4.22647L3.52601 4.12243L3.52601 4.12244L3.75334 4.22647ZM3.7498 4.2342L3.52247 4.13017L3.52247 4.13017L3.7498 4.2342ZM11.9603 18.31V18.56H12.2103V18.31H11.9603ZM10.0371 18.31H9.78711V18.56H10.0371V18.31ZM3.94101 11.3525C4.40408 11.4984 4.90436 11.5708 5.43543 11.5708V11.0708C4.94988 11.0708 4.50075 11.0046 4.09119 10.8756L3.94101 11.3525ZM4.2661 19.4635V11.1141H3.7661V19.4635H4.2661ZM17.9872 19.2135H4.0161V19.7135H17.9872V19.2135ZM17.7372 11.1027V19.4635H18.2372V11.1027H17.7372ZM16.5785 11.5621C17.1057 11.5596 17.6027 11.4862 18.0625 11.3411L17.912 10.8642C17.5049 10.9927 17.0584 11.0598 16.5762 11.0621L16.5785 11.5621ZM13.6152 10.5132C14.4421 11.1878 15.4832 11.5621 16.5773 11.5621V11.0621C15.598 11.0621 14.6686 10.7273 13.9313 10.1258L13.6152 10.5132ZM11.0151 11.5642C12.0896 11.5556 13.1152 11.1803 13.9315 10.5131L13.6151 10.1259C12.8867 10.7213 11.9712 11.0566 11.0112 11.0642L11.0151 11.5642ZM8.07016 10.5161C8.89096 11.1834 9.9235 11.5574 11.0116 11.5642L11.0147 11.0642C10.0399 11.0581 9.11763 10.7233 8.38557 10.1282L8.07016 10.5161ZM5.43615 11.5708C6.52336 11.5676 7.56125 11.1907 8.3862 10.5156L8.06954 10.1287C7.33334 10.7311 6.40669 11.0679 5.4347 11.0708L5.43615 11.5708ZM2.64406 10.04C1.7686 9.2582 1.25139 8.13273 1.25 6.92526L0.75 6.92584C0.75156 8.27697 1.33056 9.53738 2.31102 10.413L2.64406 10.04ZM2.72754 19.4635V10.2265H2.22754V19.4635H2.72754ZM4.01612 20.752C3.30565 20.752 2.72754 20.1739 2.72754 19.4635H2.22754C2.22754 20.4501 3.0295 21.252 4.01612 21.252V20.752ZM17.9873 20.752H4.01612V21.252H17.9873V20.752ZM19.2758 19.4635C19.2758 20.174 18.6977 20.752 17.9873 20.752V21.252C18.9739 21.252 19.7758 20.4501 19.7758 19.4634L19.2758 19.4635ZM19.2758 10.2141V19.4635H19.7758V10.2141H19.2758ZM20.75 6.91413C20.7503 8.11638 20.2338 9.24422 19.359 10.0279L19.6926 10.4003C20.672 9.52303 21.2503 8.26032 21.25 6.91402L20.75 6.91413ZM19.4494 3.69209C20.0512 5.0309 20.3796 5.77962 20.5575 6.23149C20.736 6.68465 20.7505 6.80982 20.75 6.91286L21.25 6.91529C21.251 6.71182 21.2054 6.51208 21.0228 6.04829C20.8396 5.5832 20.5059 4.82293 19.9054 3.48708L19.4494 3.69209ZM18.7151 2.03442C18.8911 2.45042 19.1637 3.05674 19.4494 3.69211L19.9054 3.48705C19.6187 2.84943 19.3488 2.2492 19.1755 1.83958L18.7151 2.03442ZM17.5292 1.25C18.048 1.25 18.5132 1.5579 18.7151 2.03452L19.1755 1.83948C18.8951 1.17759 18.2484 0.75 17.5292 0.75V1.25ZM4.51439 1.25H17.5292V0.75H4.51439V1.25ZM3.33206 2.0266C3.53475 1.55541 3.99866 1.25 4.51439 1.25V0.75C3.79956 0.75 3.15465 1.17371 2.87276 1.82902L3.33206 2.0266ZM2.61261 3.62283C2.89332 3.0092 3.15919 2.42804 3.33202 2.02669L2.87279 1.82894C2.70272 2.22388 2.43969 2.7989 2.15793 3.41483L2.61261 3.62283ZM2.58187 3.69003L2.61261 3.62282L2.15793 3.41483L2.12718 3.48203L2.58187 3.69003ZM1.25 6.92555C1.25 6.82174 1.26531 6.6958 1.44808 6.24059C1.63033 5.78669 1.96626 5.03473 2.58184 3.69009L2.12722 3.48196C1.51299 4.82364 1.17165 5.58715 0.984088 6.05429C0.797049 6.52013 0.75 6.7208 0.75 6.92555H1.25ZM3.75896 8.9689C3.16852 8.48686 2.8098 7.76829 2.7896 6.99097L2.28977 7.00396C2.31379 7.92801 2.74043 8.78283 3.44275 9.35621L3.75896 8.9689ZM3.98063 9.13829C3.90419 9.05902 3.81494 8.99204 3.71608 8.94069L3.48563 9.38442C3.53591 9.41053 3.58153 9.44472 3.62069 9.48534L3.98063 9.13829ZM4.18877 9.2549C4.10303 9.20916 4.02055 9.15917 3.94152 9.10527L3.6598 9.51835C3.75373 9.58242 3.85171 9.64179 3.95346 9.69606L4.18877 9.2549ZM4.19896 9.26047L4.19151 9.25638L3.95072 9.69458L3.95817 9.69867L4.19896 9.26047ZM4.21359 9.26862L4.20035 9.26124L3.95678 9.6979L3.97002 9.70529L4.21359 9.26862ZM5.43318 9.53219C4.95029 9.53219 4.54048 9.439 4.20741 9.26529L3.9762 9.70862C4.39438 9.92671 4.88683 10.0322 5.43318 10.0322V9.53219ZM7.44631 8.59144C6.9461 9.18699 6.21173 9.52995 5.43246 9.53219L5.4339 10.0322C6.35997 10.0295 7.23403 9.6216 7.82918 8.91301L7.44631 8.59144ZM7.7957 8.32325C7.66103 8.38611 7.54175 8.47768 7.44623 8.59153L7.82926 8.91291C7.8779 8.85495 7.93863 8.80832 8.0072 8.77632L7.7957 8.32325ZM8.22577 8.22763C8.07715 8.22775 7.93036 8.26039 7.7957 8.32325L8.0072 8.77632C8.07576 8.74431 8.1505 8.72769 8.22617 8.72763L8.22577 8.22763ZM8.65657 8.3227C8.52169 8.25996 8.3742 8.22761 8.22594 8.22763L8.226 8.72763C8.30187 8.72762 8.37732 8.74425 8.44566 8.77604L8.65657 8.3227ZM9.00619 8.59027C8.91054 8.47666 8.79122 8.38534 8.65657 8.3227L8.44566 8.77604C8.51423 8.80794 8.575 8.85445 8.62371 8.9123L9.00619 8.59027ZM11.0135 9.52562C10.2336 9.52082 9.5024 9.17934 9.00615 8.59022L8.62375 8.91235C9.21533 9.61464 10.0858 10.0199 11.0105 10.0256L11.0135 9.52562ZM12.992 8.58852C12.4972 9.17815 11.7712 9.51946 11.01 9.52562L11.014 10.0256C11.9221 10.0183 12.7865 9.61129 13.375 8.90992L12.992 8.58852ZM14.5535 8.58783C14.1603 8.12092 13.3838 8.12089 12.9919 8.58867L13.3751 8.90977C13.567 8.68078 13.9774 8.67998 14.171 8.90988L14.5535 8.58783ZM16.5735 9.52358C15.7879 9.52358 15.0522 9.1822 14.5537 8.58816L14.1707 8.90955C14.7653 9.61819 15.6419 10.0236 16.5735 10.0236V9.52358ZM17.8342 9.23374C17.4944 9.41998 17.0713 9.52111 16.5723 9.52358L16.5748 10.0236C17.1388 10.0208 17.6473 9.90632 18.0745 9.67222L17.8342 9.23374ZM18.1 9.06746C18.0151 9.12784 17.9265 9.18334 17.8345 9.23356L18.0742 9.6724C18.1835 9.61268 18.2889 9.54669 18.3899 9.47489L18.1 9.06746ZM18.2202 8.97879C18.1699 9.00998 18.1225 9.04539 18.0786 9.08453L18.4113 9.45783C18.4337 9.43779 18.4579 9.4197 18.4836 9.40381L18.2202 8.97879ZM18.8254 8.28852C18.6596 8.56062 18.4467 8.79947 18.1977 8.99449L18.5061 9.38812C18.8021 9.15622 19.0553 8.8722 19.2524 8.54865L18.8254 8.28852ZM19.2107 6.97457C19.1999 7.43879 19.067 7.89197 18.8254 8.28852L19.2524 8.54865C19.5397 8.07711 19.6977 7.53823 19.7106 6.98623L19.2107 6.97457ZM18.046 4.32298C18.2615 4.80234 18.5292 5.39776 18.7571 5.91985C18.9883 6.4494 19.1698 6.88396 19.2215 7.05333L19.6998 6.90747C19.6376 6.70364 19.4413 6.23735 19.2153 5.7198C18.9861 5.19477 18.7174 4.59682 18.502 4.11794L18.046 4.32298ZM17.2989 2.63609C17.4783 3.05954 17.7554 3.67641 18.046 4.32297L18.502 4.11796C18.2105 3.46935 17.9361 2.85832 17.7593 2.44107L17.2989 2.63609ZM4.51437 2.78858H17.5291V2.28858H4.51437V2.78858ZM3.98066 4.3305C4.27839 3.67996 4.5623 3.05951 4.744 2.63743L4.28474 2.43973C4.10584 2.85532 3.82481 3.46956 3.52601 4.12243L3.98066 4.3305ZM3.97713 4.33823L3.98067 4.33049L3.52601 4.12244L3.52247 4.13017L3.97713 4.33823ZM2.77825 7.07221C2.83191 6.90092 3.01709 6.46604 3.2525 5.93659C3.48465 5.41446 3.75709 4.81907 3.97713 4.33822L3.52247 4.13017C3.30268 4.61049 3.02907 5.2084 2.79562 5.73345C2.56543 6.25117 2.36546 6.71734 2.30112 6.92272L2.77825 7.07221ZM11.9603 18.06H10.0371V18.56H11.9603V18.06ZM11.7103 14.4636V18.31H12.2103V14.4636H11.7103ZM11.191 13.9443C11.4778 13.9443 11.7103 14.1768 11.7103 14.4636H12.2103C12.2103 13.9007 11.754 13.4443 11.191 13.4443V13.9443ZM10.8064 13.9443H11.191V13.4443H10.8064V13.9443ZM10.2871 14.4636C10.2871 14.1768 10.5196 13.9443 10.8064 13.9443V13.4443C10.2435 13.4443 9.78711 13.9007 9.78711 14.4636H10.2871ZM10.2871 18.31V14.4636H9.78711V18.31H10.2871Z" fill="#FCF9F5"/>
</svg>
